<?xml version="1.0" encoding="UTF-8" standalone="no"?><!DOCTYPE svg PUBLIC "-//W3C//DTD SVG 1.1//EN" "http://www.w3.org/Graphics/SVG/1.1/DTD/svg11.dtd"><svg xmlns="http://www.w3.org/2000/svg" xmlns:xlink="http://www.w3.org/1999/xlink" version="1.1" width="672" height="542" viewBox="0 0 672 542"><g><clipPath id="cp0"><path transform="matrix(1,0,0,-1,0,542)" d="M 66 84 L 606 84 L 606 83 L 66 83 Z "/></clipPath><g clip-path="url(#cp0)"><path transform="matrix(1,0,0,-1,0,542)" stroke-width="1" stroke-linecap="butt" stroke-miterlimit="3.25" stroke-linejoin="miter" fill="none" stroke="#000000" d="M 66 83.355 L 606 83.355 "/></g><path transform="matrix(1,0,0,-1,0,542)" stroke-width="1" stroke-linecap="butt" stroke-miterlimit="3.25" stroke-linejoin="miter" fill="none" stroke="#b2b2b2" d="M 66 149.672 L 606 149.672 "/><path transform="matrix(1,0,0,-1,0,542)" stroke-width="1" stroke-linecap="butt" stroke-miterlimit="3.25" stroke-linejoin="miter" fill="none" stroke="#b2b2b2" d="M 66 215.988 L 606 215.988 "/><path transform="matrix(1,0,0,-1,0,542)" stroke-width="1" stroke-linecap="butt" stroke-miterlimit="3.25" stroke-linejoin="miter" fill="none" stroke="#b2b2b2" d="M 66 282.301 L 606 282.301 "/><path transform="matrix(1,0,0,-1,0,542)" stroke-width="1" stroke-linecap="butt" stroke-miterlimit="3.25" stroke-linejoin="miter" fill="none" stroke="#b2b2b2" d="M 66 348.617 L 606 348.617 "/><path transform="matrix(1,0,0,-1,0,542)" stroke-width="1" stroke-linecap="butt" stroke-miterlimit="3.25" stroke-linejoin="miter" fill="none" stroke="#b2b2b2" d="M 66 414.934 L 606 414.934 "/><path transform="matrix(1,0,0,-1,0,542)" stroke-width="1" stroke-linecap="butt" stroke-miterlimit="3.25" stroke-linejoin="miter" fill="none" stroke="#b2b2b2" d="M 66 481.25 L 606 481.25 "/><path transform="matrix(1,0,0,-1,0,542)" stroke-width="1.6" stroke-linecap="butt" stroke-miterlimit="3.25" stroke-linejoin="miter" fill="none" stroke="#49149f" d="M 137.629 315.461 L 142.664 282.301 L 147.703 215.988 L 152.578 249.145 L 157.617 215.988 L 162.652 249.145 L 167.691 189.461 L 172.566 215.988 L 177.602 215.988 L 182.641 234.223 L 187.68 215.988 L 192.555 215.988 L 197.59 212.672 L 202.629 269.039 L 207.668 315.461 L 212.594 398.355 L 217.633 434.828 L 222.672 448.094 L 227.711 348.617 L 232.582 378.461 L 237.621 348.617 L 242.66 302.199 L 247.699 302.199 L 252.57 315.461 L 257.609 282.301 L 262.648 315.461 L 272.559 315.461 L 277.598 282.301 L 282.637 282.301 L 287.672 255.777 L 292.602 275.672 L 297.641 282.301 L 302.68 282.301 L 307.715 278.988 L 312.59 272.355 L 317.629 269.039 L 322.664 315.461 L 327.703 282.301 L 332.578 315.461 L 337.617 359.23 L 342.652 341.988 L 347.691 315.461 L 352.566 282.301 L 362.641 282.301 L 367.68 315.461 L 372.609 348.617 L 377.645 348.617 L 382.684 351.934 L 387.723 282.301 L 392.594 249.145 L 397.633 249.145 L 402.672 255.777 L 407.711 278.988 L 412.582 282.301 L 422.66 282.301 L 427.699 295.566 L 432.57 285.617 L 437.609 295.566 L 442.648 305.512 L 447.684 282.301 L 452.613 242.512 L 457.652 215.988 L 462.691 249.145 L 467.727 249.145 L 472.602 265.723 L 477.641 249.145 L 482.68 249.145 L 487.715 269.039 L 492.59 269.039 L 497.629 275.672 L 502.664 252.461 L 507.703 215.988 L 512.578 229.25 L 517.617 215.988 L 522.652 222.617 L 527.691 202.723 L 532.621 215.988 L 537.656 182.828 L 542.695 199.406 L 547.734 192.777 L 552.609 235.883 L 557.645 215.988 L 567.723 215.988 L 572.594 229.25 L 577.633 229.25 L 582.672 215.988 L 587.711 209.355 L 592.582 215.988 "/><path transform="matrix(1,0,0,-1,0,542)" stroke-width="1.6" stroke-linecap="butt" stroke-miterlimit="3.25" stroke-linejoin="miter" fill="none" stroke="#d8aa00" d="M 77.609 282.301 L 92.559 282.301 L 97.598 308.828 L 112.547 335.355 L 117.586 322.094 L 130.945 282.301 L 135.93 249.145 L 150.934 262.406 L 155.918 202.723 L 170.922 262.406 L 175.906 255.777 L 190.91 222.617 L 195.895 229.25 L 210.953 434.828 L 217.633 448.094 L 232.582 209.355 L 237.621 235.883 L 252.57 255.777 L 257.609 242.512 L 262.648 249.145 L 267.684 255.777 L 272.559 229.25 L 277.598 235.883 L 282.637 235.883 L 287.672 215.988 L 292.602 235.883 L 297.641 242.512 L 302.68 249.145 L 307.715 249.145 L 312.59 255.777 L 317.629 262.406 L 322.664 255.777 L 327.703 269.039 L 332.578 262.406 L 342.652 262.406 L 347.691 249.145 L 352.566 249.145 L 357.602 262.406 L 362.641 262.406 L 367.68 282.301 L 372.609 282.301 L 377.645 302.199 L 382.684 255.777 L 387.723 249.145 L 392.594 235.883 L 397.633 235.883 L 402.672 229.25 L 407.711 235.883 L 412.582 282.301 L 417.621 295.566 L 422.66 295.566 L 427.699 302.199 L 432.57 262.406 L 437.609 255.777 L 442.648 315.461 L 447.684 295.566 L 452.613 308.828 L 457.652 308.828 L 462.691 255.777 L 482.68 255.777 L 487.715 249.145 L 492.59 255.777 L 497.629 242.512 L 502.664 262.406 L 507.703 235.883 L 512.578 269.039 L 517.617 255.777 L 522.652 249.145 L 527.691 229.25 L 532.621 249.145 L 537.656 215.988 L 542.695 222.617 L 547.734 229.25 L 552.609 229.25 L 557.645 242.512 L 562.684 235.883 L 567.723 235.883 L 572.594 229.25 L 587.711 229.25 L 592.582 215.988 L 597.621 209.355 "/><path transform="matrix(1,0,0,-1,0,542)" stroke-width="1.6" stroke-linecap="butt" stroke-miterlimit="3.25" stroke-linejoin="miter" fill="none" stroke="#00ae42" d="M 354.262 280.977 L 365.98 291.254 L 367.68 297.887 L 369.266 305.379 L 370.965 318.777 L 372.609 334.293 L 374.305 343.777 L 375.949 342.781 L 377.645 322.027 L 379.344 310.688 L 380.984 250.207 L 382.684 200.137 L 384.328 122.148 L 386.023 124.605 L 387.723 157.762 L 389.254 147.945 L 390.953 155.309 L 392.594 155.109 L 394.293 179.313 L 395.938 187.473 L 397.633 222.617 L 399.332 231.371 L 400.973 237.871 L 402.672 238.734 L 404.316 233.297 L 406.012 238.934 L 407.711 250.934 L 409.242 255.777 L 410.941 263.27 L 412.582 274.875 L 414.281 273.68 L 415.926 278.988 L 417.621 274.277 L 419.32 274.211 L 420.961 279.383 L 422.66 273.352 L 424.301 273.879 L 426 295.566 L 427.699 311.746 L 429.23 309.824 L 430.93 309.027 L 432.57 284.824 L 434.27 271.094 L 435.91 266.652 L 437.609 250.801 L 439.309 245.629 L 440.949 250.539 L 442.648 265.457 L 444.289 265.258 L 445.988 267.316 L 447.684 277.66 L 449.273 278.789 L 450.973 270.367 L 452.613 268.641 L 454.313 266.254 L 455.953 268.773 L 457.652 281.309 L 459.348 281.309 L 460.992 275.207 L 462.691 250.273 L 464.332 245.695 L 466.031 245.629 L 467.727 254.516 L 469.262 257.102 L 470.957 245.895 L 472.602 228.387 L 474.301 216.449 L 475.941 223.281 L 477.641 230.445 L 479.336 233.43 L 480.98 226.133 L 482.68 212.406 L 484.32 211.477 L 486.02 217.711 L 487.715 227.129 L 489.25 230.645 L 490.945 236.082 L 492.59 235.219 L 494.289 236.477 L 495.93 235.152 L 497.629 231.77 L 499.324 229.582 L 500.969 221.758 L 502.664 218.508 L 504.309 205.84 L 506.008 191.184 L 507.703 196.953 L 509.238 195.762 L 510.934 208.16 L 512.578 241.984 L 514.273 245.563 L 515.918 242.512 L 517.617 219.832 L 519.313 216.383 L 520.957 224.742 L 522.652 220.098 L 524.297 204.848 L 525.992 192.313 L 527.691 203.719 L 529.281 197.02 L 530.977 190.457 L 532.621 186.41 L 534.316 179.512 L 535.961 186.809 L 537.656 184.355 L 539.355 182.098 L 541 197.352 L 542.695 198.48 L 544.34 202.855 L 546.035 205.84 L 547.734 202.789 L 549.266 201 L 550.965 202.523 L 552.609 203.586 L 554.305 199.938 L 555.949 205.309 L 557.645 221.758 L 559.344 226.266 L 560.984 222.816 L 562.684 204.516 L 564.328 207.895 L 566.023 211.941 L 567.723 203.055 L 569.254 202.855 L 570.953 204.184 L 572.594 210.418 L 574.293 211.809 L 575.938 212.34 L 577.633 208.027 L 579.332 207.633 L 580.973 209.355 L 582.672 203.52 L 584.316 183.559 L 586.012 177.789 L 587.711 174.273 L 589.242 165.852 L 590.941 171.023 L 592.582 184.422 L 594.281 184.422 L 595.926 176.328 L 597.621 170.891 "/><path transform="matrix(1,0,0,-1,0,542)" stroke-width="1" stroke-linecap="butt" stroke-miterlimit="3.25" stroke-linejoin="miter" fill="none" stroke="#000000" d="M 606 83.355 L 66 83.355 "/><path transform="matrix(1,0,0,-1,0,542)" stroke-width="1" stroke-linecap="butt" stroke-miterlimit="3.25" stroke-linejoin="miter" fill="none" stroke="#000000" d="M 66 83.355 L 66 481.25 "/><path transform="matrix(1,0,0,-1,0,542)" stroke-width="1" stroke-linecap="butt" stroke-miterlimit="3.25" stroke-linejoin="miter" fill="none" stroke="#000000" d="M 66 481.25 L 606 481.25 "/><path transform="matrix(1,0,0,-1,0,542)" stroke-width="1" stroke-linecap="butt" stroke-miterlimit="3.25" stroke-linejoin="miter" fill="none" stroke="#000000" d="M 606 481.25 L 606 83.355 "/><path transform="matrix(1,0,0,-1,0,542)" stroke-width="1" stroke-linecap="butt" stroke-miterlimit="3.25" stroke-linejoin="miter" fill="none" stroke="#000000" d="M 66 83.355 L 66 91.457 "/><path transform="matrix(1,0,0,-1,0,542)" stroke-width="1" stroke-linecap="butt" stroke-miterlimit="3.25" stroke-linejoin="miter" fill="none" stroke="#000000" d="M 85.988 83.355 L 85.988 91.457 "/><path transform="matrix(1,0,0,-1,0,542)" stroke-width="1" stroke-linecap="butt" stroke-miterlimit="3.25" stroke-linejoin="miter" fill="none" stroke="#000000" d="M 105.977 83.355 L 105.977 91.457 "/><path transform="matrix(1,0,0,-1,0,542)" stroke-width="1" stroke-linecap="butt" stroke-miterlimit="3.25" stroke-linejoin="miter" fill="none" stroke="#000000" d="M 125.965 83.355 L 125.965 91.457 "/><path transform="matrix(1,0,0,-1,0,542)" stroke-width="1" stroke-linecap="butt" stroke-miterlimit="3.25" stroke-linejoin="miter" fill="none" stroke="#000000" d="M 146.008 83.355 L 146.008 91.457 "/><path transform="matrix(1,0,0,-1,0,542)" stroke-width="1" stroke-linecap="butt" stroke-miterlimit="3.25" stroke-linejoin="miter" fill="none" stroke="#000000" d="M 165.992 83.355 L 165.992 91.457 "/><path transform="matrix(1,0,0,-1,0,542)" stroke-width="1" stroke-linecap="butt" stroke-miterlimit="3.25" stroke-linejoin="miter" fill="none" stroke="#000000" d="M 185.98 83.355 L 185.98 91.457 "/><path transform="matrix(1,0,0,-1,0,542)" stroke-width="1" stroke-linecap="butt" stroke-miterlimit="3.25" stroke-linejoin="miter" fill="none" stroke="#000000" d="M 205.969 83.355 L 205.969 91.457 "/><path transform="matrix(1,0,0,-1,0,542)" stroke-width="1" stroke-linecap="butt" stroke-miterlimit="3.25" stroke-linejoin="miter" fill="none" stroke="#000000" d="M 226.012 83.355 L 226.012 91.457 "/><path transform="matrix(1,0,0,-1,0,542)" stroke-width="1" stroke-linecap="butt" stroke-miterlimit="3.25" stroke-linejoin="miter" fill="none" stroke="#000000" d="M 246 83.355 L 246 91.457 "/><path transform="matrix(1,0,0,-1,0,542)" stroke-width="1" stroke-linecap="butt" stroke-miterlimit="3.25" stroke-linejoin="miter" fill="none" stroke="#000000" d="M 265.988 83.355 L 265.988 91.457 "/><path transform="matrix(1,0,0,-1,0,542)" stroke-width="1" stroke-linecap="butt" stroke-miterlimit="3.25" stroke-linejoin="miter" fill="none" stroke="#000000" d="M 285.977 83.355 L 285.977 91.457 "/><path transform="matrix(1,0,0,-1,0,542)" stroke-width="1" stroke-linecap="butt" stroke-miterlimit="3.25" stroke-linejoin="miter" fill="none" stroke="#000000" d="M 306.02 83.355 L 306.02 91.457 "/><path transform="matrix(1,0,0,-1,0,542)" stroke-width="1" stroke-linecap="butt" stroke-miterlimit="3.25" stroke-linejoin="miter" fill="none" stroke="#000000" d="M 326.008 83.355 L 326.008 91.457 "/><path transform="matrix(1,0,0,-1,0,542)" stroke-width="1" stroke-linecap="butt" stroke-miterlimit="3.25" stroke-linejoin="miter" fill="none" stroke="#000000" d="M 345.992 83.355 L 345.992 91.457 "/><path transform="matrix(1,0,0,-1,0,542)" stroke-width="1" stroke-linecap="butt" stroke-miterlimit="3.25" stroke-linejoin="miter" fill="none" stroke="#000000" d="M 365.98 83.355 L 365.98 91.457 "/><path transform="matrix(1,0,0,-1,0,542)" stroke-width="1" stroke-linecap="butt" stroke-miterlimit="3.25" stroke-linejoin="miter" fill="none" stroke="#000000" d="M 386.023 83.355 L 386.023 91.457 "/><path transform="matrix(1,0,0,-1,0,542)" stroke-width="1" stroke-linecap="butt" stroke-miterlimit="3.25" stroke-linejoin="miter" fill="none" stroke="#000000" d="M 406.012 83.355 L 406.012 91.457 "/><path transform="matrix(1,0,0,-1,0,542)" stroke-width="1" stroke-linecap="butt" stroke-miterlimit="3.25" stroke-linejoin="miter" fill="none" stroke="#000000" d="M 426 83.355 L 426 91.457 "/><path transform="matrix(1,0,0,-1,0,542)" stroke-width="1" stroke-linecap="butt" stroke-miterlimit="3.25" stroke-linejoin="miter" fill="none" stroke="#000000" d="M 445.988 83.355 L 445.988 91.457 "/><path transform="matrix(1,0,0,-1,0,542)" stroke-width="1" stroke-linecap="butt" stroke-miterlimit="3.25" stroke-linejoin="miter" fill="none" stroke="#000000" d="M 466.031 83.355 L 466.031 91.457 "/><path transform="matrix(1,0,0,-1,0,542)" stroke-width="1" stroke-linecap="butt" stroke-miterlimit="3.25" stroke-linejoin="miter" fill="none" stroke="#000000" d="M 486.02 83.355 L 486.02 91.457 "/><path transform="matrix(1,0,0,-1,0,542)" stroke-width="1" stroke-linecap="butt" stroke-miterlimit="3.25" stroke-linejoin="miter" fill="none" stroke="#000000" d="M 506.008 83.355 L 506.008 91.457 "/><path transform="matrix(1,0,0,-1,0,542)" stroke-width="1" stroke-linecap="butt" stroke-miterlimit="3.25" stroke-linejoin="miter" fill="none" stroke="#000000" d="M 525.992 83.355 L 525.992 91.457 "/><path transform="matrix(1,0,0,-1,0,542)" stroke-width="1" stroke-linecap="butt" stroke-miterlimit="3.25" stroke-linejoin="miter" fill="none" stroke="#000000" d="M 546.035 83.355 L 546.035 91.457 "/><path transform="matrix(1,0,0,-1,0,542)" stroke-width="1" stroke-linecap="butt" stroke-miterlimit="3.25" stroke-linejoin="miter" fill="none" stroke="#000000" d="M 566.023 83.355 L 566.023 91.457 "/><path transform="matrix(1,0,0,-1,0,542)" stroke-width="1" stroke-linecap="butt" stroke-miterlimit="3.25" stroke-linejoin="miter" fill="none" stroke="#000000" d="M 586.012 83.355 L 586.012 91.457 "/><path transform="matrix(1,0,0,-1,0,542)" stroke-width="1" stroke-linecap="butt" stroke-miterlimit="3.25" stroke-linejoin="miter" fill="none" stroke="#000000" d="M 606 83.355 L 606 91.457 "/><text xml:space="preserve" transform="matrix(1 0 -0 1 0 542)" font-size="20" font-family="Arial"><tspan y="-56.355264" x="473.68394 484.80393 495.92393 507.0439 373.68394 384.80393 395.92393 407.0439 273.6961 284.8161 295.9361 307.0561 173.63608 184.75608 195.87607 206.99607 73.65352 84.77352 95.893527 107.01353 573.67788 584.79788 595.91787 607.03787">201420092004199919942019</tspan><tspan y="-75.85526" x="51.876939">0</tspan><tspan y="-142.17104" x="51.876939">1</tspan><tspan y="-208.48682" x="51.876939">2</tspan><tspan y="-274.80259" x="51.876939">3</tspan><tspan y="-341.11836" x="51.876939">4</tspan><tspan y="-407.4341" x="51.876939">5</tspan><tspan y="-465.24989" x="45.216779">%</tspan><tspan y="-75.855159" x="608.99996">0</tspan><tspan y="-142.17093" x="608.99996">1</tspan><tspan y="-208.48671" x="608.99996">2</tspan><tspan y="-274.8025" x="608.99996">3</tspan><tspan y="-341.11827" x="608.99996">4</tspan><tspan y="-407.43403" x="608.99996">5</tspan><tspan y="-465.24983" x="608.99996">%</tspan></text><text xml:space="preserve" transform="matrix(1 0 -0 1 0 542)" font-size="28" font-family="Arial" font-weight="bold"><tspan y="-515.75" x="115.08984 133.73784 150.81784 167.89785 178.78984 188.11385 197.43785 206.76186 222.32987 233.22187 265.89787 273.65388 290.73387 300.05787 307.81388 323.38188 332.70588 340.46189 357.54188 382.40586 401.05387 416.62187 433.70185 449.26985 464.83784 474.16184 489.72984 499.05384 506.80986 523.88986 540.96987">Short-termInflationExpectations</tspan></text><text xml:space="preserve" transform="matrix(1 0 -0 1 0 542)" font-size="20" font-family="Arial"><tspan y="-489.75" x="253.73926 269.27928 279.27928 290.39927 302.61927 308.15928 319.27928 335.95927 347.07926 358.19926 368.19926 379.27928 389.27928 400.39927 411.51927">Overthenextyear</tspan></text><text fill="#00ae40" xml:space="preserve" transform="matrix(1 0 -0 1 0 542)" font-size="20" font-family="Arial"><tspan y="-121.72784" x="401.88539 407.42539 418.54539 424.0854 428.5254 439.6454 445.1854 449.6254 460.7454 477.42539 487.42539 501.8654 512.9854 524.1054">Inflationswaps</tspan></text><text fill="#49129d" xml:space="preserve" transform="matrix(1 0 -0 1 0 542)" font-size="20" font-family="Arial"><tspan y="-366.714" x="312.39765 326.83766 337.95765 342.39765 353.51765 364.63764">Unions</tspan></text><text fill="#d8aa00" xml:space="preserve" transform="matrix(1 0 -0 1 0 542)" font-size="20" font-family="Arial"><tspan y="-184.0547" x="199.95432 216.61432 227.73432 234.39432 244.39432 255.51432 266.61433 277.7343 287.7343 298.8543 309.9743 321.0943 337.7543 342.1943 352.1943 357.7343">Marketeconomists</tspan></text><text xml:space="preserve" transform="matrix(1 0 -0 1 0 542)" font-size="16" font-family="Arial"><tspan y="-25.8" x="63.55 74.206 83.102008 91.99801 97.32601 105.32601 114.222019 122.222019 130.60602 141.26203 150.15802 158.15802 162.59003 167.91803 176.81403 180.36603 183.91803 192.81403 206.15802 217.71002 226.60602 235.50202 244.39801 252.39801 255.95001 263.95 272.846 282.286 292.04603 297.37403 306.27003 315.16603 328.49403 340.04603 348.94203 352.49403 361.39 370.286 378.286 387.16603 397.82203 401.37403 410.27003 419.16603 432.49403 441.39 450.286 455.614 464.51 473.39 484.94203 495.59803 506.25404 515.13406 530.22207 539.11807 544.44607 552.44607 561.34207 564.89407 573.79006 581.79006">Sources:AustralianCouncilofTradeUnions;Bloomberg;RBA;Workplace</tspan><tspan y="-5.799999" x="130.65 142.202 151.09799 159.09799 167.99399 176.88999 182.21799 190.21799 203.56198 215.11399 224.00998 232.90598 237.33798 242.66599">ResearchCentre</tspan></text></g></svg>